{"title":"Kingsman The Secret Service 2015 NEWSOURCE RUSS CAM XviD AC3 MUR","uid":11720693,"size":740687968,"categoryP":"video","categoryS":"movies","magnet":"?xt=urn:btih:a62a6b1db2bda2082fa66676efc0a1df9fb74e72&amp;dn=Kingsman+The+Secret+Service+2015+NEWSOURCE+RUSS+CAM+XviD+AC3+MUR&amp;tr=udp%3A%2F%2Ftracker.openbittorrent.com%3A80&amp;tr=udp%3A%2F%2Fopen.demonii.com%3A1337&amp;tr=udp%3A%2F%2Ftracker.coppersurfer.tk%3A6969&amp;tr=udp%3A%2F%2Fexodus.desync.com%3A6969","seeders":7,"leechers":2,"uploader":"makintos13","files":8,"time":1424800613,"description":" &lt;a href=&quot;http://imgsleek.com/img-54ecad724bb5a.html&quot; rel=&quot;nofollow&quot; target=&quot;_NEW&quot;&gt;http://imgsleek.com/img-54ecad724bb5a.html&lt;/a&gt;\n &lt;a href=&quot;\nhttp://imgsleek.com/img-54ecad7251a37.html&quot; rel=&quot;nofollow&quot; target=&quot;_NEW&quot;&gt;\nhttp://imgsleek.com/img-54ecad7251a37.html&lt;/a&gt;\n &lt;a href=&quot;\nhttp://imgsleek.com/img-54ecad72573b6.html&quot; rel=&quot;nofollow&quot; target=&quot;_NEW&quot;&gt;\nhttp://imgsleek.com/img-54ecad72573b6.html&lt;/a&gt;\n\n........................\n\nKingsman The Secret Service 2015 NEWSOURCE RUSS CAM XviD AC3 MURD3R.avi\nFormat : AVI\nFormat/Info : Audio Video Interleave\nFile size : 705 MiB\nDuration : 2h 2mn\nOverall bit rate : 808 Kbps\n\nVideo\nID : 0\nFormat : MPEG-4 Visual\nFormat profile : Advanced Simple@L5\nFormat settings, BVOP : 3\nFormat settings, QPel : No\nFormat settings, GMC : No warppoints\nFormat settings, Matrix : Custom\nCodec ID : XVID\nCodec ID/Hint : XviD\nDuration : 2h 2mn\nBit rate : 667 Kbps\nWidth : 640 pixels\nHeight : 272 pixels\nDisplay aspect ratio : 2.35:1\nFrame rate : 29.970 fps\nColor space : YUV\nChroma subsampling : 4:2:0\nBit depth : 8 bits\nScan type : Progressive\nCompression mode : Lossy\nBits/(Pixel*Frame) : 0.128\nStream size : 583 MiB (83%)\nWriting library : XviD\n\nAudio\nID : 1\nFormat : AC-3\nFormat/Info : Audio Coding 3\nMode extension : CM (complete main)\nFormat settings, Endianness : Big\nCodec ID : 2000\nDuration : 2h 2mn\nBit rate mode : Constant\nBit rate : 128 Kbps\nChannel(s) : 2 channels\nChannel positions : Front: L R\nSampling rate : 48.0 KHz\nBit depth : 16 bits\nCompression mode : Lossy\nStream size : 112 MiB (16%)\nAlignment : Aligned on interleaves\nInterleave, duration : 32 ms (0.96 video frame)","torrent":{"xt":"urn:btih:a62a6b1db2bda2082fa66676efc0a1df9fb74e72","amp;dn":"Kingsman+The+Secret+Service+2015+NEWSOURCE+RUSS+CAM+XviD+AC3+MUR","amp;tr":["udp%3A%2F%2Ftracker.openbittorrent.com%3A80","udp%3A%2F%2Fopen.demonii.com%3A1337","udp%3A%2F%2Ftracker.coppersurfer.tk%3A6969","udp%3A%2F%2Fexodus.desync.com%3A6969"],"infoHash":"a62a6b1db2bda2082fa66676efc0a1df9fb74e72","infoHashBuffer":{"type":"Buffer","data":[166,42,107,29,178,189,162,8,47,166,102,118,239,192,161,223,159,183,78,114]},"announce":[],"urlList":[]}}